<?xml version="1.0" encoding="UTF-8"?>
<svg version="1.1" xmlns="http://www.w3.org/2000/svg" width="225" height="225">
<path d="M0 0 C74.25 0 148.5 0 225 0 C225 74.25 225 148.5 225 225 C150.75 225 76.5 225 0 225 C0 150.75 0 76.5 0 0 Z " fill="#784E43" transform="translate(0,0)"/>
<path d="M0 0 C74.25 0 148.5 0 225 0 C225 26.4 225 52.8 225 80 C150.75 80 76.5 80 0 80 C0 53.6 0 27.2 0 0 Z " fill="#713C2F" transform="translate(0,0)"/>
<path d="M0 0 C74.25 0 148.5 0 225 0 C225 8.91 225 17.82 225 27 C150.75 27 76.5 27 0 27 C0 18.09 0 9.18 0 0 Z " fill="#838180" transform="translate(0,198)"/>
<path d="M0 0 C74.25 0 148.5 0 225 0 C225 6.93 225 13.86 225 21 C150.75 21 76.5 21 0 21 C0 14.07 0 7.14 0 0 Z " fill="#76463A" transform="translate(0,28)"/>
<path d="M0 0 C74.25 0 148.5 0 225 0 C225 2.97 225 5.94 225 9 C150.75 9 76.5 9 0 9 C0 6.03 0 3.06 0 0 Z " fill="#633B31" transform="translate(0,28)"/>
<path d="M0 0 C74.25 0 148.5 0 225 0 C225 2.64 225 5.28 225 8 C150.75 8 76.5 8 0 8 C0 5.36 0 2.72 0 0 Z " fill="#7B6761" transform="translate(0,190)"/>
<path d="M0 0 C74.25 0 148.5 0 225 0 C225 0.99 225 1.98 225 3 C212.58338811 3.13262923 200.16675567 3.26313065 187.75009537 3.39115143 C181.98019592 3.45070325 176.21030496 3.51090114 170.44042969 3.57275391 C128.70376661 4.01920904 87.00690714 4.04365486 45.27105713 3.53643799 C40.14035842 3.4745549 35.00963113 3.41513568 29.87890625 3.35546875 C19.91924251 3.23930151 9.95961161 3.12054872 0 3 C0 2.01 0 1.02 0 0 Z " fill="#543027" transform="translate(0,49)"/>
<path d="M0 0 C74.25 0 148.5 0 225 0 C225 0.99 225 1.98 225 3 C212.58338811 3.13262923 200.16675567 3.26313065 187.75009537 3.39115143 C181.98019592 3.45070325 176.21030496 3.51090114 170.44042969 3.57275391 C128.70376661 4.01920904 87.00690714 4.04365486 45.27105713 3.53643799 C40.14035842 3.4745549 35.00963113 3.41513568 29.87890625 3.35546875 C19.91924251 3.23930151 9.95961161 3.12054872 0 3 C0 2.01 0 1.02 0 0 Z " fill="#543129" transform="translate(0,37)"/>
<path d="M0 0 C74.25 0 148.5 0 225 0 C225 0.99 225 1.98 225 3 C150.75 3 76.5 3 0 3 C0 2.01 0 1.02 0 0 Z " fill="#9E6050" transform="translate(0,28)"/>
<path d="M0 0 C74.25 0 148.5 0 225 0 C225 0.99 225 1.98 225 3 C150.75 3 76.5 3 0 3 C0 2.01 0 1.02 0 0 Z " fill="#9F6354" transform="translate(0,0)"/>
<path d="M0 0 C74.25 0 148.5 0 225 0 C225 0.99 225 1.98 225 3 C150.75 3 76.5 3 0 3 C0 2.01 0 1.02 0 0 Z " fill="#9C5E4E" transform="translate(0,40)"/>
<path d="M0 0 C74.25 0 148.5 0 225 0 C225 0.99 225 1.98 225 3 C150.75 3 76.5 3 0 3 C0 2.01 0 1.02 0 0 Z " fill="#9C5F4F" transform="translate(0,52)"/>
<path d="M0 0 C18.93749118 -0.03127763 37.87498724 -0.05119561 56.8125 -0.0625 C57.51901986 -0.0629343 58.22553972 -0.06336861 58.95346928 -0.06381607 C100.43011661 -0.08861702 141.90036323 0.03875517 183.375 0.5 C184.45096561 0.51195782 185.52693123 0.52391563 186.63550186 0.53623581 C199.42381428 0.67936917 212.21197467 0.83319909 225 1 C225 1.66 225 2.32 225 3 C150.75 3 76.5 3 0 3 C0 2.01 0 1.02 0 0 Z " fill="#925F51" transform="translate(0,34)"/>
</svg>
